# Blender 5.1.0
# www.blender.org
mtllib suzanne-0.3.mtl
o Suzanne
v 0.546875 0.054688 0.578125
v -0.546875 0.054688 0.578125
v -0.348823 -0.039891 0.626154
v 0.348823 -0.039891 0.626154
v 0.243436 0.183277 0.809088
v 0.156250 0.054688 0.648438
v -0.156250 0.054688 0.648438
v -0.066086 0.241075 0.663968
v 0.065623 0.241473 0.664332
v 0.296268 0.364523 0.805121
v 0.156250 0.437500 0.648438
v -0.156250 0.437500 0.648438
v 0.351562 0.515625 0.617188
v -0.351562 0.515625 0.617188
v -0.293751 0.363527 0.805224
v -0.466618 0.309081 0.768140
v 0.546875 0.437500 0.578125
v -0.546875 0.437500 0.578125
v 0.633369 0.242106 0.566534
v -0.633263 0.242030 0.566494
v 0.467091 0.308394 0.768123
v -0.243136 0.183168 0.809604
v 0.411605 0.129821 0.794655
v -0.411605 0.129821 0.794655
v 0.000000 -0.187500 0.796875
v 0.000000 0.898438 -0.546875
v 0.000000 0.562500 -0.851562
v 0.000000 -0.382812 -0.351562
v -0.223717 -0.193371 0.529801
v 0.223095 -0.182572 0.537520
v -0.364485 -0.934935 0.527463
v 0.365799 -0.923413 0.528840
v 0.582274 -0.083975 0.538726
v -0.574942 -0.088264 0.540223
v 0.795853 0.151428 0.417778
v 0.841731 0.416465 0.572731
v -0.852831 0.421193 0.588270
v 0.253604 0.768544 0.746560
v -0.253433 0.768836 0.748109
v -0.000467 0.418818 0.744456
v 0.207694 0.152361 0.750915
v 0.404942 -0.022652 0.679367
v 0.611977 0.172832 0.665211
v 0.572695 0.365439 0.688196
v -0.261609 0.481956 0.761877
v 0.306832 0.476701 0.752781
v 0.000000 -0.195312 0.750000
v 0.000000 -0.140625 0.742188
v 0.109622 -0.127367 0.784855
v -0.539893 -0.002377 0.638478
v -0.730324 0.381592 0.681374
v 0.701861 0.406364 0.701875
v -0.248244 0.648821 0.854577
v 0.252976 0.656178 0.850654
v -0.006031 0.325982 0.829469
v -0.091305 -0.118257 0.792388
v 0.141460 -0.238190 0.733421
v 0.273289 -0.886184 0.648504
v -0.272967 -0.886192 0.649776
v 0.017284 -0.984477 0.591458
v -0.102173 0.130465 0.742287
v -0.130561 -0.226255 0.812502
v 0.031197 -0.157521 0.822140
v 0.130492 -0.225592 0.812825
v -0.003510 -0.332462 0.762465
v -0.138343 -0.242680 0.731990
v 0.081207 -0.860197 0.701942
v 0.065857 -0.759863 0.734646
v -0.098573 -0.730395 0.728907
v 0.093144 -0.792467 0.647164
v -0.065943 -0.865276 0.683015
v -0.412973 0.388532 0.752534
v -0.574115 0.365077 0.686721
v -0.543159 0.212734 0.683209
v -0.460760 0.120128 0.707842
v -0.374026 0.085633 0.727129
v 0.198150 0.304100 0.760369
v -0.196071 0.294624 0.761091
v 0.293952 0.398592 0.778324
v 0.242188 0.125000 0.757812
v 0.373829 0.086535 0.728236
v 0.460938 0.117188 0.703125
v 0.546875 0.210938 0.671875
v -0.546850 0.292564 0.686891
v 0.551672 0.288132 0.675783
v 0.411560 0.390627 0.752042
v -0.280962 0.396572 0.770937
v -0.227140 0.134763 0.760223
v 0.053740 0.428979 0.616572
v -0.121205 0.483398 0.607582
v -0.261462 0.709033 0.606235
v 0.260303 0.708855 0.607407
v -0.457458 0.528564 0.474708
v -0.711654 0.400774 0.307327
v -0.803836 0.161472 0.420019
v -0.436074 -0.104066 0.453043
v 0.527753 -0.047276 0.450400
v 0.000000 0.898438 0.289062
v 0.000000 0.984375 -0.078125
v -0.011619 -0.075160 -0.779360
v -0.795840 0.041023 0.158112
v -0.831749 0.350337 -0.387405
v -0.490828 0.417757 -0.691108
v 0.814251 0.064879 0.177529
v 0.533910 0.047078 -0.538381
v -0.738105 -0.086049 -0.332369
v -0.214052 -0.410230 0.341908
v -0.322199 -0.914282 0.396656
v 0.321192 -0.910612 0.408725
v 0.000282 -0.495311 0.307091
v -0.027229 -0.950352 0.402103
v 0.199753 -0.398234 0.297475
v 0.347695 -0.237654 -0.431147
v 0.453125 0.867188 -0.382812
v -0.453125 0.867188 -0.382812
v -0.476077 0.899132 0.128827
v 0.465608 0.900982 0.152219
v 0.460237 0.527298 0.472638
v 0.717463 0.403459 0.312642
v -0.781498 0.576058 0.095848
v 0.781498 0.576058 0.095848
v 0.770823 0.623203 -0.342437
v -0.774117 0.618565 -0.345925
v 0.459720 0.411020 -0.709570
v -0.391690 -0.080613 -0.564660
v 0.838238 0.304138 -0.194035
v 0.539567 -0.142898 -0.158480
v -0.352624 -0.254787 -0.249850
v -0.637334 -0.131573 -0.129306
v -1.048997 -0.073373 -0.319236
v -1.315084 0.072190 -0.487198
v -1.363250 0.313430 -0.444733
v -1.210536 0.485920 -0.399701
v -0.980884 0.376460 -0.258508
v 1.207696 0.489413 -0.396355
v 1.234498 0.248681 -0.433467
v 1.238196 0.056204 -0.404615
v 1.037881 -0.075968 -0.309556
v 0.799217 -0.111136 -0.120197
v -0.845118 -0.049599 -0.146843
v 1.005483 0.430324 -0.271337
v 0.851778 -0.000411 -0.293091
v -1.147014 0.048217 -0.437880
v -1.233435 0.252704 -0.432477
v -1.170348 0.345691 -0.460999
v -0.957870 0.304972 -0.342476
v -0.795922 0.102855 -0.308274
v 0.790779 0.104465 -0.308961
v -0.712712 0.004226 -0.186871
v 0.709322 -0.014957 -0.168345
v -0.851212 0.363598 -0.191879
v 0.972471 0.311042 -0.359196
v -0.849688 -0.002268 -0.295795
v 1.170774 0.345162 -0.460286
v 1.142695 0.041631 -0.458032
v 1.059998 0.205557 -0.380618
v -1.074143 0.218953 -0.386767
v -1.223191 0.489490 -0.551496
v 1.227002 0.480829 -0.552827
v 1.363280 0.310916 -0.445376
v 1.225087 -0.009861 -0.547001
v -1.039062 -0.085938 -0.492188
v 0.789062 -0.125000 -0.328125
v 0.833846 0.352238 -0.391235
vn 0.7426 -0.1332 0.6563
vn -0.7425 -0.1307 0.6570
vn 0.4662 -0.7042 0.5356
vn -0.4662 -0.7042 0.5356
vn -0.1498 -0.6682 0.7288
vn 0.1472 -0.6690 0.7286
vn -0.6561 -0.3741 0.6555
vn -0.5826 0.1871 0.7909
vn 0.5878 0.1841 0.7878
vn 0.6212 0.3409 0.7056
vn 0.2249 0.7902 0.5701
vn 0.7806 0.3135 0.5408
vn 0.0846 -0.0029 0.9964
vn -0.0882 -0.0006 0.9961
vn 0.2335 0.0715 0.9697
vn -0.2310 0.0726 0.9702
vn 0.2318 -0.8636 0.4478
vn -0.5348 0.5477 0.6435
vn -0.4562 -0.4039 0.7929
vn -0.0470 -0.4822 0.8748
vn 0.3377 -0.0042 0.9412
vn -0.0370 0.1331 0.9904
vn -0.0598 -0.6340 0.7711
vn 0.2238 -0.2709 0.9362
vn 0.3572 -0.0496 0.9327
vn 0.9676 0.2331 0.0967
vn -0.9384 0.3449 0.0203
vn -0.2234 0.9324 0.2842
vn -1.0000 -0.0000 -0.0000
vn 0.4777 0.6670 0.5717
vn -0.5745 -0.7893 0.2166
vn -0.1167 -0.2998 0.9468
vn 0.0874 -0.3371 0.9374
vn -0.3458 -0.1307 0.9291
vn 0.5085 0.1913 0.8396
vn 0.3788 0.6735 0.6347
vn -0.1785 -0.9389 0.2942
vn 0.3153 -0.2364 0.9191
vn 0.3442 -0.3001 0.8896
vn -0.3198 -0.3019 0.8981
vn -0.4681 -0.1867 0.8637
vn -0.3835 0.5470 0.7441
vn -0.4886 0.3429 0.8023
vn -0.1449 0.1368 0.9799
vn 0.3259 -0.2356 0.9156
vn -0.1452 -0.0523 0.9880
vn 0.1879 0.1513 0.9705
vn -0.3390 -0.6083 -0.7177
vn 0.2823 0.9395 0.1943
vn -0.5263 0.7938 -0.3048
vn 0.8960 0.0981 -0.4330
vn 0.0422 -0.2067 -0.9775
vn -0.2289 -0.1857 -0.9556
vn -0.1157 -0.9747 -0.1913
vn 0.9320 0.1492 -0.3302
vn -0.9449 0.1725 -0.2782
vn 0.0504 -0.2005 -0.9784
vn -0.2826 -0.9162 -0.2841
vn 0.1993 -0.7930 -0.5757
vn 0.0615 0.9718 0.2275
vn 0.6474 0.2784 -0.7095
vn 0.7208 0.6909 0.0568
vn -0.7284 0.6831 0.0536
vn -0.3761 0.2484 -0.8926
vn 0.3843 0.2336 -0.8932
vn 0.1411 0.5854 0.7983
vn -0.9440 0.2878 -0.1612
vn 0.9786 0.2060 -0.0017
vn -0.9550 0.2964 0.0126
vn 0.9748 0.2209 0.0322
vn 0.5292 -0.8449 -0.0788
vn 0.4776 -0.8665 0.1453
vn -0.4819 -0.5859 0.6515
vn 0.6088 -0.2327 -0.7584
vn -0.4653 -0.3035 -0.8315
vn -0.1502 -0.1231 0.9810
vn 0.0196 0.1486 0.9887
vn -0.3508 -0.7774 0.5221
vn -0.3580 0.8383 0.4113
vn -0.6075 -0.1867 0.7720
vn 0.6019 -0.7985 0.0017
vn -0.8375 -0.5266 -0.1456
vn -0.1753 0.3048 0.9361
vn 0.0951 0.4328 0.8965
vn 0.9056 -0.3809 -0.1868
vn 0.4334 0.6933 0.5758
vn -0.2806 0.9122 0.2985
vn -0.8817 -0.3352 0.3320
vn -0.4443 -0.4421 0.7792
vn -0.9165 -0.3558 -0.1829
vn 0.7233 -0.5280 0.4450
vn 0.1644 0.2404 0.9567
vn 0.2526 0.0131 0.9675
vn 0.5039 -0.1477 0.8511
vn -0.4408 -0.0795 0.8941
vn 0.3378 -0.2572 0.9054
vn 0.1831 0.3737 0.9093
vn -0.1750 0.3953 0.9017
vn 0.4239 0.1711 0.8894
vn -0.4559 0.1661 0.8744
vn 0.7604 0.6468 0.0583
vn -0.3315 0.9389 -0.0924
vn 0.3457 0.9379 -0.0292
vn -0.0932 -0.1315 -0.9869
vn 0.6100 -0.0118 -0.7923
vn -0.6180 0.0150 -0.7860
vn 0.5612 -0.1600 -0.8120
vn 0.7534 -0.3119 0.5789
vn -0.7536 -0.3115 0.5789
vn -0.2558 -0.6822 0.6849
vn 0.2566 -0.6836 0.6833
vn 0.6591 -0.3732 0.6529
vn -0.6158 0.3422 0.7097
vn -0.2251 0.7906 0.5694
vn -0.3744 0.6740 0.6368
vn 0.8637 0.1381 0.4847
vn -0.7806 0.3128 0.5411
vn -0.1919 -0.8538 0.4839
vn -0.8688 0.1438 0.4738
vn 0.3289 -0.8078 0.4891
vn -0.3129 -0.8049 0.5043
vn 0.6832 -0.4166 0.5998
vn 0.4628 -0.4342 0.7729
vn 0.7309 -0.3677 0.5750
vn -0.7181 -0.3765 0.5853
vn -0.6923 -0.4441 0.5688
vn 0.5288 0.5777 0.6218
vn -0.6892 0.5022 0.5223
vn -0.4558 0.4267 0.7812
vn 0.6890 0.4840 0.5394
vn 0.3550 -0.2837 0.8908
vn 0.0324 -0.4601 0.8873
vn -0.1373 -0.1415 0.9804
vn -0.0730 -0.3939 0.9162
vn -0.0633 -0.1310 0.9894
vn 0.1117 -0.2922 0.9498
vn -0.2779 0.1780 0.9440
vn -0.3193 -0.1157 0.9406
vn 0.0336 -0.6736 0.7383
vn -0.2864 -0.2692 0.9195
vn -0.3277 -0.0327 0.9442
vn -0.1148 -0.3447 0.9317
vn 0.0856 -0.0509 0.9950
vn 0.0918 -0.7699 0.6315
vn -0.7825 0.4728 0.4052
vn 0.5621 -0.8013 0.2048
vn 0.3319 0.3817 -0.8627
vn 0.3036 0.3201 0.8974
vn -0.1573 0.2358 0.9590
vn 0.9126 0.0757 0.4018
vn -0.8996 0.1392 0.4138
vn -0.1199 0.6370 0.7615
vn -0.9589 -0.0560 -0.2782
vn 0.1409 -0.0328 0.9895
vn -0.0418 -0.4181 0.9075
vn -0.0201 -0.1017 0.9946
vn 0.3880 0.4652 0.7956
vn 0.1876 0.0615 0.9803
vn 0.2274 0.2686 0.9360
vn -0.3582 -0.1325 0.9242
vn -0.7759 0.5645 -0.2817
vn -0.4016 0.8373 -0.3711
vn 0.7734 0.5297 -0.3482
vn 0.3461 0.8667 -0.3593
vn 0.5109 0.7987 -0.3180
vn -0.3407 0.8651 -0.3682
vn 0.1262 -0.9748 -0.1842
vn -0.8826 0.1268 -0.4527
vn 0.4463 -0.6947 -0.5641
vn -0.4420 -0.6843 -0.5800
vn -0.1019 -0.9829 -0.1532
vn -0.3467 -0.7975 -0.4938
vn 0.0050 -0.1090 -0.9940
vn 0.9479 0.1856 -0.2589
vn -0.9491 0.1810 -0.2577
vn 0.2320 -0.8392 -0.4919
vn 0.4372 -0.5530 -0.7092
vn 0.3818 -0.9137 -0.1392
vn -0.3798 -0.9123 -0.1533
vn 0.3436 -0.2014 -0.9173
vn 0.5898 -0.7443 0.3133
vn -0.5722 -0.7516 0.3282
vn 0.1730 0.9777 -0.1188
vn -0.2815 -0.1029 -0.9540
vn -0.0751 0.9709 0.2272
vn -0.1711 0.9777 -0.1216
vn 0.3608 0.5832 -0.7278
vn -0.3591 0.5849 -0.7273
vn 0.6223 0.5073 0.5962
vn -0.6710 0.2520 -0.6973
vn 0.4847 0.5140 -0.7078
vn -0.4849 0.5220 -0.7017
vn 0.6129 0.7875 -0.0640
vn -0.6160 0.7840 -0.0766
vn -0.6223 0.5076 0.5959
vn 0.1754 0.6026 0.7786
vn -0.2265 0.6460 0.7289
vn 0.9723 0.0963 0.2129
vn 0.9579 0.2856 -0.0295
vn -0.9626 0.0566 0.2649
vn -0.4203 -0.8879 0.1872
vn -0.9679 0.2252 -0.1116
vn -0.8036 -0.5944 0.0320
vn 0.6489 -0.7172 0.2542
vn -0.5745 -0.2686 -0.7732
vn -0.3305 -0.8976 -0.2916
vn -0.2472 -0.1770 0.9527
vn 0.7376 -0.5994 -0.3107
vn -0.4259 0.2338 0.8740
vn 0.1551 -0.1336 0.9788
vn 0.3347 0.6830 0.6492
vn -0.1326 0.6354 0.7607
vn 0.5075 -0.5272 0.6816
vn -0.6462 0.1981 0.7370
vn -0.4985 0.1191 0.8587
vn 0.6017 -0.1688 0.7807
vn -0.5503 -0.5778 0.6027
vn -0.2479 0.0596 0.9669
vn 0.5674 0.4357 0.6987
vn -0.5857 0.3843 0.7136
vn 0.9086 -0.3485 0.2303
vn 0.6425 -0.4912 0.5882
vn -0.7724 -0.5723 0.2755
vn 0.0174 0.9531 0.3023
vn 0.1959 -0.9799 -0.0371
vn -0.3023 -0.1526 0.9409
vn -0.0439 -0.9961 -0.0767
vn -0.4055 -0.0455 -0.9129
vn 0.6182 -0.7332 0.2833
vn -0.4963 -0.8675 0.0345
vn 0.8989 -0.4232 0.1136
vn -0.7565 0.6493 0.0783
vn 0.3248 0.9458 -0.0048
vn -0.3486 0.9311 -0.1073
vn 0.4261 0.0148 -0.9045
vn -0.1233 -0.9515 -0.2818
vn -0.5239 0.8248 0.2128
vt 0.858469 0.584075
vt 0.838734 0.620063
vt 0.781448 0.527061
vt 0.858178 0.892925
vt 0.894119 0.873197
vt 0.951175 0.950206
vt 0.781649 0.696591
vt 0.746541 0.611927
vt 0.781649 0.950010
vt 0.866314 0.985118
vt 0.874499 0.640266
vt 0.837905 0.857235
vt 0.951265 0.696878
vt 0.866314 0.731700
vt 0.893757 0.600813
vt 0.876752 0.837714
vt 0.781356 0.780387
vt 0.866314 0.745572
vt 0.951006 0.780653
vt 0.866314 0.492154
vt 0.523856 0.074498
vt 0.502561 0.057198
vt 0.532022 0.066911
vt 0.415223 0.372430
vt 0.404823 0.396236
vt 0.343268 0.315576
vt 0.419187 0.331830
vt 0.500943 0.342649
vt 0.521993 0.198265
vt 0.598509 0.245934
vt 0.569212 0.287018
vt 0.467593 0.266161
vt 0.493972 0.079094
vt 0.476292 0.074246
vt 0.508330 0.079613
vt 0.506645 0.091401
vt 0.530725 0.170517
vt 0.520110 0.181388
vt 0.479934 0.181314
vt 0.481180 0.198122
vt 0.469238 0.171836
vt 0.504787 0.191273
vt 0.500000 0.203867
vt 0.500000 0.192167
vt 0.500000 0.197278
vt 0.498787 0.159990
vt 0.951006 0.527235
vt 0.489346 0.091661
vt 0.505602 0.084897
vt 0.622963 0.280394
vt 0.589867 0.280038
vt 0.401591 0.282882
vt 0.379156 0.256936
vt 0.410133 0.279998
vt 0.393884 0.291547
vt 0.381419 0.306520
vt 0.403546 0.309479
vt 0.572673 0.304545
vt 0.584933 0.312581
vt 0.587653 0.329649
vt 0.416067 0.312724
vt 0.596435 0.309438
vt 0.607507 0.298183
vt 0.623277 0.309348
vt 0.392705 0.298796
vt 0.606985 0.291216
vt 0.598275 0.283083
vt 0.576352 0.284624
vt 0.470353 0.428636
vt 0.501895 0.383506
vt 0.514292 0.428636
vt 0.396224 0.423172
vt 0.333786 0.388954
vt 0.696284 0.264873
vt 0.743894 0.312859
vt 0.683890 0.318600
vt 0.619337 0.027004
vt 0.537536 0.060658
vt 0.520125 0.029824
vt 0.380697 0.027237
vt 0.492977 0.030048
vt 0.384926 0.087938
vt 0.468499 0.066444
vt 0.462672 0.060816
vt 0.622427 0.088392
vt 0.404600 0.162395
vt 0.357251 0.229505
vt 0.343390 0.203012
vt 0.798987 0.095398
vt 0.774604 0.010837
vt 0.896830 0.048743
vt 0.855079 0.336210
vt 0.958963 0.357385
vt 0.899807 0.420886
vt 0.887991 0.177740
vt 0.840064 0.233992
vt 0.813499 0.190705
vt 0.797729 0.282736
vt 0.202271 0.282736
vt 0.142320 0.333512
vt 0.159915 0.234064
vt 0.793952 0.477806
vt 0.734532 0.447084
vt 0.763410 0.379131
vt 0.265611 0.446814
vt 0.206279 0.465018
vt 0.236968 0.379349
vt 0.824765 0.470987
vt 0.304507 0.265332
vt 0.251421 0.311186
vt 0.246983 0.209794
vt 0.797447 0.204842
vt 0.199606 0.202260
vt 0.772068 0.156780
vt 0.657409 0.212412
vt 0.753181 0.213068
vt 0.825762 0.147055
vt 0.116800 0.178184
vt 0.105721 0.050929
vt 0.173839 0.115857
vt 0.080037 0.876399
vt 0.071203 0.743142
vt 0.183298 0.788232
vt 0.564773 0.788480
vt 0.591870 0.734293
vt 0.678773 0.742428
vt 0.268315 0.695495
vt 0.195633 0.694869
vt 0.314685 0.602108
vt 0.522900 0.758927
vt 0.553462 0.695889
vt 0.541574 0.815568
vt 0.670298 0.876448
vt 0.786507 0.181864
vt 0.219887 0.169386
vt 0.212214 0.182803
vt 0.497535 0.660747
vt 0.406790 0.680192
vt 0.408153 0.587507
vt 0.348562 0.691407
vt 0.450281 0.733972
vt 0.298988 0.731089
vt 0.318905 0.903519
vt 0.314634 0.758107
vt 0.263317 0.879672
vt 0.438899 0.763049
vt 0.499615 0.815231
vt 0.492990 0.908676
vt 0.505566 0.788179
vt 0.243381 0.791451
vt 0.217444 0.754772
vt 0.208831 0.815477
vt 0.257445 0.815227
vt 0.675824 0.682374
vt 0.727131 0.698475
vt 0.723955 0.589028
vt 0.030670 0.553627
vt 0.106907 0.584723
vt 0.074517 0.681823
vt 0.116375 0.703342
vt 0.136716 0.655816
vt 0.633749 0.680652
vt 0.643465 0.585020
vt 0.574269 0.607668
vt 0.526877 0.539235
vt 0.746541 0.865345
vt 0.986087 0.611927
vt 0.986087 0.865345
vt 0.593345 0.164779
vt 0.643678 0.230734
vt 0.652209 0.319667
vt 0.315653 0.318013
vt 0.595273 0.396161
vt 0.585972 0.372349
vt 0.426658 0.303319
vt 0.425430 0.285620
vt 0.603425 0.423272
vt 0.666214 0.388954
vt 0.710071 0.321194
vt 0.225396 0.010837
vt 0.232619 0.105271
vt 0.987633 0.154243
vt 0.903302 0.261367
vt 0.999860 0.253531
vt 0.012367 0.154243
vt 0.100193 0.420886
vt 0.041037 0.357385
vt 0.000140 0.253531
vt 0.096698 0.261367
vt 0.186501 0.190705
vt 0.196211 0.171181
vt 0.402013 0.853976
vt 0.188874 0.589016
vt 0.023095 0.698475
vt 0.717709 0.538143
s 0
f 21/1/1 23/2/1 19/3/1
f 24/4/2 16/5/2 20/6/2
f 23/2/3 4/7/3 1/8/3
f 3/9/4 24/4/4 2/10/4
f 23/2/5 5/11/5 4/7/5
f 22/12/6 24/4/6 3/9/6
f 9/13/7 6/14/7 5/11/7
f 5/11/8 10/15/8 9/13/8
f 15/16/9 22/12/9 8/17/9
f 15/16/10 8/17/10 12/18/10
f 15/16/11 12/18/11 14/19/11
f 19/3/12 17/20/12 21/1/12
f 23/2/13 10/15/13 5/11/13
f 22/12/14 15/16/14 24/4/14
f 23/2/15 21/1/15 10/15/15
f 15/16/16 16/5/16 24/4/16
f 58/21/17 60/22/17 32/23/17
f 53/24/18 39/25/18 51/26/18
f 45/27/19 55/28/19 53/24/19
f 51/26/20 45/27/20 53/24/20
f 49/29/21 42/30/21 41/31/21
f 41/31/22 61/32/22 49/29/22
f 60/22/23 71/33/23 59/34/23
f 67/35/24 58/21/24 68/36/24
f 57/37/25 68/36/25 58/21/25
f 49/29/26 64/38/26 57/37/26
f 62/39/27 56/40/27 66/41/27
f 63/42/28 49/29/28 48/43/28
f 25/44/29 48/43/29 47/45/29
f 25/44/30 48/43/30 56/40/30
f 66/41/31 65/46/31 62/39/31
f 63/42/32 65/46/32 64/38/32
f 65/46/33 63/42/33 62/39/33
f 48/43/34 49/29/34 61/32/34
f 56/40/35 48/43/35 61/32/35
f 13/47/36 10/15/36 21/1/36 17/20/36
f 68/36/37 69/48/37 70/49/37
f 71/33/38 70/49/38 69/48/38
f 42/30/39 43/50/39 81/51/39
f 75/52/40 50/53/40 76/54/40
f 74/55/41 50/53/41 75/52/41
f 45/27/42 73/56/42 72/57/42
f 77/58/43 79/59/43 46/60/43
f 45/27/44 72/57/44 87/61/44
f 86/62/45 85/63/45 44/64/45
f 73/56/46 74/55/46 84/65/46
f 43/50/47 83/66/47 82/67/47
f 81/51/48 80/68/48 41/31/48
f 90/69/49 40/70/49 89/71/49
f 39/25/50 91/72/50 93/73/50
f 35/74/51 119/75/51 36/76/51
f 110/77/52 109/78/52 111/79/52
f 110/80/53 111/81/53 107/82/53
f 111/81/54 31/83/54 108/84/54
f 32/23/55 109/78/55 112/85/55
f 108/84/56 31/83/56 107/82/56
f 109/78/57 110/77/57 112/85/57
f 29/86/58 34/87/58 96/88/58
f 113/89/59 28/90/59 100/91/59
f 117/92/60 99/93/60 98/94/60
f 124/95/61 122/96/61 164/97/61
f 117/92/62 121/98/62 122/96/62
f 120/99/63 116/100/63 123/101/63
f 89/102/64 92/103/64 118/104/64
f 91/105/65 90/106/65 93/107/65
f 89/102/66 118/104/66 90/108/66
f 95/109/67 94/110/67 101/111/67
f 126/112/68 122/96/68 121/98/68
f 123/101/69 151/113/69 120/99/69
f 122/96/70 126/112/70 164/97/70
f 113/89/71 127/114/71 112/85/71
f 97/115/72 127/114/72 104/116/72
f 96/88/73 107/82/73 29/86/73
f 105/117/74 124/95/74 164/97/74
f 103/118/75 100/119/75 125/120/75
f 133/121/76 132/122/76 144/123/76
f 136/124/77 137/125/77 160/126/77
f 140/127/78 130/128/78 129/129/78
f 137/125/79 155/130/79 138/131/79
f 154/132/80 136/124/80 135/133/80
f 127/114/81 150/134/81 104/116/81
f 129/135/82 101/111/82 149/136/82
f 139/137/83 150/138/83 127/139/83
f 129/129/84 149/140/84 140/127/84
f 104/116/85 150/134/85 126/112/85
f 139/137/86 142/141/86 150/138/86
f 153/142/87 140/127/87 149/140/87
f 151/143/88 147/144/88 149/140/88
f 151/143/89 134/145/89 147/144/89
f 101/111/90 151/113/90 149/136/90
f 148/146/91 152/147/91 141/148/91
f 142/141/92 156/149/92 148/146/92
f 148/146/93 156/149/93 152/147/93
f 155/130/94 156/149/94 142/141/94
f 157/150/95 143/151/95 153/142/95
f 156/149/96 155/130/96 136/124/96
f 154/132/97 156/149/97 136/124/97
f 157/150/98 145/152/98 144/123/98
f 152/147/99 156/149/99 154/132/99
f 145/152/100 157/150/100 146/153/100
f 160/126/101 159/154/101 135/155/101
f 135/155/102 159/154/102 141/156/102
f 151/157/103 102/158/103 158/159/103
f 131/160/104 158/159/104 162/161/104
f 159/154/105 160/126/105 161/162/105
f 131/160/106 132/122/106 158/159/106
f 164/163/107 163/164/107 105/165/107
f 19/3/108 23/2/108 1/8/108
f 2/10/109 24/4/109 20/6/109
f 4/7/110 5/11/110 6/14/110
f 7/166/111 22/12/111 3/9/111
f 8/17/112 22/12/112 7/166/112
f 10/15/113 11/167/113 9/13/113
f 10/15/114 13/47/114 11/167/114
f 14/19/115 18/168/115 16/5/115 15/16/115
f 58/21/116 32/23/116 30/169/116 57/37/116
f 20/6/117 16/5/117 18/168/117
f 59/34/118 31/83/118 60/22/118
f 29/86/119 31/83/119 59/34/119 66/41/119
f 42/30/120 49/29/120 30/169/120 33/170/120
f 29/86/121 56/40/121 50/53/121 34/87/121
f 43/50/122 35/74/122 36/76/122 52/171/122
f 33/170/123 43/50/123 42/30/123
f 33/170/124 35/74/124 43/50/124
f 50/53/125 95/109/125 34/87/125
f 50/53/126 51/26/126 37/172/126 95/109/126
f 52/171/127 36/76/127 38/173/127 54/174/127
f 54/174/128 38/173/128 40/70/128 55/28/128
f 39/25/129 37/172/129 51/26/129
f 53/24/130 55/28/130 40/70/130 39/25/130
f 55/28/131 77/58/131 46/60/131 54/174/131
f 46/60/132 44/64/132 52/171/132 54/174/132
f 73/56/133 51/26/133 50/53/133 74/55/133
f 51/26/134 73/56/134 45/27/134
f 43/50/135 52/171/135 44/64/135
f 61/32/136 41/31/136 77/58/136 55/28/136
f 56/40/137 61/32/137 50/53/137
f 55/28/138 45/27/138 78/175/138
f 60/22/139 58/21/139 67/35/139 71/33/139
f 61/32/140 55/28/140 78/175/140
f 66/41/141 59/34/141 69/48/141 65/46/141
f 71/33/142 69/48/142 59/34/142
f 69/48/143 68/36/143 57/37/143 65/46/143
f 61/32/144 88/176/144 76/54/144 50/53/144
f 25/44/145 63/42/145 48/43/145
f 57/37/146 64/38/146 65/46/146
f 56/40/147 63/42/147 25/44/147
f 64/38/148 49/29/148 63/42/148
f 62/39/149 63/42/149 56/40/149
f 30/169/150 49/29/150 57/37/150
f 66/41/151 56/40/151 29/86/151
f 67/35/152 70/49/152 71/33/152
f 67/35/153 68/36/153 70/49/153
f 88/176/154 61/32/154 78/175/154
f 41/31/155 42/30/155 81/51/155
f 83/66/156 43/50/156 44/64/156 85/63/156
f 46/60/157 86/62/157 44/64/157
f 78/175/158 45/27/158 87/61/158
f 46/60/159 79/59/159 86/62/159
f 72/57/160 73/56/160 84/65/160
f 92/177/161 89/71/161 40/70/161 38/173/161
f 43/50/162 82/67/162 81/51/162
f 40/70/163 90/69/163 91/72/163 39/25/163
f 118/178/164 38/173/164 36/76/164 119/179/164
f 38/173/165 118/178/165 92/177/165
f 93/73/166 94/110/166 37/172/166 39/25/166
f 111/81/167 109/78/167 32/23/167 60/22/167
f 95/109/168 37/172/168 94/110/168
f 35/74/169 33/170/169 97/115/169
f 96/88/170 34/87/170 95/109/170
f 111/81/171 60/22/171 31/83/171
f 28/180/172 128/181/172 125/120/172 100/119/172
f 107/82/173 111/81/173 108/84/173
f 30/169/174 32/23/174 112/85/174
f 107/82/175 31/83/175 29/86/175
f 30/169/176 97/115/176 33/170/176
f 105/117/177 113/89/177 100/91/177
f 112/85/178 110/77/178 28/90/178 113/89/178
f 28/180/179 110/80/179 107/82/179 128/181/179
f 100/91/180 27/182/180 124/95/180 105/117/180
f 35/74/181 97/115/181 104/116/181
f 101/111/182 96/88/182 95/109/182
f 114/183/183 26/184/183 99/93/183 117/92/183
f 103/118/184 27/185/184 100/119/184
f 116/100/185 98/186/185 99/187/185
f 99/187/186 26/188/186 115/189/186 116/100/186
f 124/95/187 27/182/187 26/184/187 114/183/187
f 26/188/188 27/185/188 103/118/188 115/189/188
f 119/75/189 121/98/189 117/92/189 118/104/189
f 103/118/190 102/190/190 123/101/190
f 124/95/191 114/183/191 122/96/191
f 123/101/192 115/189/192 103/118/192
f 114/183/193 117/92/193 122/96/193
f 123/101/194 116/100/194 115/189/194
f 116/100/195 120/99/195 94/110/195 93/107/195
f 98/94/196 90/108/196 118/104/196 117/92/196
f 98/186/197 116/100/197 93/107/197 90/106/197
f 121/98/198 119/75/198 104/116/198 126/112/198
f 35/74/199 104/116/199 119/75/199
f 101/111/200 94/110/200 120/99/200 151/113/200
f 129/135/201 128/181/201 96/88/201 101/111/201
f 123/101/202 102/190/202 151/113/202
f 128/181/203 107/82/203 96/88/203
f 112/85/204 127/114/204 97/115/204 30/169/204
f 103/118/205 125/120/205 106/191/205 102/190/205
f 106/191/206 125/120/206 128/181/206 129/135/206
f 131/160/207 143/151/207 144/123/207 132/122/207
f 113/89/208 105/117/208 127/114/208
f 133/121/209 134/145/209 151/143/209
f 135/133/210 136/124/210 160/126/210
f 142/141/211 139/137/211 138/131/211 155/130/211
f 143/151/212 131/160/212 130/128/212
f 135/133/213 141/148/213 152/147/213 154/132/213
f 140/127/214 143/151/214 130/128/214
f 136/124/215 155/130/215 137/125/215
f 145/152/216 133/121/216 144/123/216
f 133/121/217 145/152/217 146/153/217 134/145/217
f 146/153/218 157/150/218 153/142/218 147/144/218
f 148/146/219 150/138/219 142/141/219
f 153/142/220 149/140/220 147/144/220
f 126/192/221 150/138/221 148/146/221
f 126/192/222 148/146/222 141/148/222
f 147/144/223 134/145/223 146/153/223
f 143/151/224 140/127/224 153/142/224
f 163/164/225 161/162/225 138/131/225 139/137/225
f 157/150/226 144/123/226 143/151/226
f 130/128/227 162/161/227 106/193/227 129/129/227
f 164/163/228 159/154/228 161/162/228 163/164/228
f 137/125/229 138/131/229 161/162/229
f 162/161/230 130/128/230 131/160/230
f 137/125/231 161/162/231 160/126/231
f 132/122/232 133/194/232 158/159/232
f 133/194/233 151/157/233 158/159/233
f 141/156/234 159/154/234 164/163/234
f 102/158/235 106/193/235 162/161/235 158/159/235
f 163/164/236 139/137/236 127/139/236 105/165/236
f 126/195/237 141/156/237 164/163/237
